<?xml version="1.0" standalone="no"?><!DOCTYPE svg PUBLIC "-//W3C//DTD SVG 1.1//EN" "http://www.w3.org/Graphics/SVG/1.1/DTD/svg11.dtd"><svg t="1673425396779" class="icon" viewBox="0 0 1024 1024" version="1.1" xmlns="http://www.w3.org/2000/svg" p-id="9582" xmlns:xlink="http://www.w3.org/1999/xlink" width="200" height="200"><path d="M313.84576 348.50816c0-109.25056 88.8832-198.144 198.15424-198.144s198.12352 88.90368 198.12352 198.144v39.05536h-396.288z m456.94976 39.05536h-7.168v-40.28416c0-0.43008-0.1024-0.83968-0.12288-1.24928C762.19392 208.40448 649.9328 96.8192 512 96.8192s-250.2144 111.616-251.57632 249.21088c0 0.43008-0.12288 0.8192-0.12288 1.24928v40.28416h-7.10656a98.304 98.304 0 0 0-98.16064 98.1504v131.6864a26.76736 26.76736 0 0 0 53.54496 0v-131.6864a44.66688 44.66688 0 0 1 44.61568-44.61568h517.60128a44.67712 44.67712 0 0 1 44.61568 44.61568V749.4656c0 88.18688-32.53248 124.17024-112.26112 124.17024H320.82944c-79.72864 0-112.25088-35.98336-112.25088-124.17024a26.76736 26.76736 0 1 0-53.54496 0c0 117.92384 55.77728 177.7152 165.79584 177.7152h382.32064c110.0288 0 165.80608-59.79136 165.80608-177.7152V485.71392a98.304 98.304 0 0 0-98.16064-98.1504zM512 781.43488" fill="#1296db" p-id="9583"></path><path d="M512 781.43488c20.34688 0 36.864-16.93696 36.864-37.76512v-89.16992a67.328 67.328 0 0 0 27.86304-54.67136c0-36.70016-29.06112-66.56-64.74752-66.56s-64.75776 29.85984-64.75776 66.56A67.29728 67.29728 0 0 0 475.136 654.49984v89.16992c0 20.82816 16.52736 37.76512 36.864 37.76512z m0 0" fill="#1296db" p-id="9584"></path></svg>